<svg width="24" height="24" viewBox="0 0 24 24" fill="none" xmlns="http://www.w3.org/2000/svg">
<path d="M12 21.25C17.1086 21.25 21.25 17.1086 21.25 12C21.25 6.89137 17.1086 2.75 12 2.75C6.89137 2.75 2.75 6.89137 2.75 12C2.75 17.1086 6.89137 21.25 12 21.25Z" stroke="black" stroke-width="1.5" stroke-linecap="round" stroke-linejoin="round"/>
<path d="M8.98 14.14L10.49 10.82C10.56 10.67 10.67 10.56 10.82 10.49L14.14 8.98C14.7 8.73 15.27 9.3 15.02 9.86L13.51 13.18C13.44 13.33 13.33 13.44 13.18 13.51L9.86 15.02C9.3 15.28 8.72 14.7 8.98 14.14Z" stroke="black" stroke-width="1.5" stroke-linecap="round" stroke-linejoin="round"/>
</svg>
