<svg width="25" height="24" viewBox="0 0 25 24" fill="none" xmlns="http://www.w3.org/2000/svg">
<path d="M12.5 2.75C8.80998 2.75 5.79999 5.76 5.79999 9.45C5.79999 14.03 11.8 20.77 12.05 21.05C12.29 21.32 12.71 21.32 12.95 21.05C13.21 20.77 19.2 14.03 19.2 9.45C19.2 5.76 16.19 2.75 12.5 2.75Z" stroke="black" stroke-width="1.5" stroke-linecap="round" stroke-linejoin="round"/>
<path d="M12.8849 11.7852C14.1776 11.5795 15.0587 10.3647 14.853 9.07204C14.6472 7.77936 13.4325 6.89824 12.1398 7.104C10.8471 7.30976 9.966 8.52449 10.1718 9.81717C10.3775 11.1099 11.5922 11.991 12.8849 11.7852Z" stroke="black" stroke-width="1.5" stroke-linecap="round" stroke-linejoin="round"/>
</svg>
