<svg width="24" height="24" viewBox="0 0 24 24" fill="none" xmlns="http://www.w3.org/2000/svg">
<path d="M19.19 4.85H21.25" stroke="white" stroke-width="1.5" stroke-linecap="round" stroke-linejoin="round"/>
<path d="M2.75 4.85H15.08" stroke="white" stroke-width="1.5" stroke-linecap="round" stroke-linejoin="round"/>
<path d="M17.14 6.89C18.2777 6.89 19.2 5.97666 19.2 4.85C19.2 3.72334 18.2777 2.81 17.14 2.81C16.0023 2.81 15.08 3.72334 15.08 4.85C15.08 5.97666 16.0023 6.89 17.14 6.89Z" stroke="white" stroke-width="1.5" stroke-linecap="round" stroke-linejoin="round"/>
<path d="M19.19 19.15H21.25" stroke="white" stroke-width="1.5" stroke-linecap="round" stroke-linejoin="round"/>
<path d="M2.75 19.15H15.08" stroke="white" stroke-width="1.5" stroke-linecap="round" stroke-linejoin="round"/>
<path d="M17.14 21.19C18.2777 21.19 19.2 20.2767 19.2 19.15C19.2 18.0233 18.2777 17.11 17.14 17.11C16.0023 17.11 15.08 18.0233 15.08 19.15C15.08 20.2767 16.0023 21.19 17.14 21.19Z" stroke="white" stroke-width="1.5" stroke-linecap="round" stroke-linejoin="round"/>
<path d="M8.92004 12H21.25" stroke="white" stroke-width="1.5" stroke-linecap="round" stroke-linejoin="round"/>
<path d="M2.75 12H4.81" stroke="white" stroke-width="1.5" stroke-linecap="round" stroke-linejoin="round"/>
<path d="M6.85999 14.04C7.99769 14.04 8.92001 13.1267 8.92001 12C8.92001 10.8733 7.99769 9.96 6.85999 9.96C5.72228 9.96 4.79999 10.8733 4.79999 12C4.79999 13.1267 5.72228 14.04 6.85999 14.04Z" stroke="white" stroke-width="1.5" stroke-linecap="round" stroke-linejoin="round"/>
</svg>
